<?xml version="1.0" standalone="no"?>
<!DOCTYPE svg PUBLIC "-//W3C//DTD SVG 20010904//EN"
 "http://www.w3.org/TR/2001/REC-SVG-20010904/DTD/svg10.dtd">
<svg version="1.0" xmlns="http://www.w3.org/2000/svg"
 width="220.000000pt" height="218.000000pt" viewBox="0 0 220.000000 218.000000"
 preserveAspectRatio="xMidYMid meet">

<g transform="translate(0.000000,218.000000) scale(0.100000,-0.100000)"
fill="#000000" stroke="none">
<path d="M0 1090 l0 -1090 1100 0 1100 0 0 1090 0 1090 -1100 0 -1100 0 0
-1090z m878 745 c12 -25 22 -53 22 -62 0 -9 8 -22 18 -29 34 -27 -21 -38 -85
-18 -14 4 -17 41 -7 68 9 24 42 20 47 -6 l4 -23 2 22 c0 14 -8 29 -23 38 -16
11 -22 22 -19 35 8 30 17 24 41 -25z m477 5 c3 -5 0 -7 -8 -4 -22 8 -16 -29 5
-38 10 -4 20 -19 24 -34 6 -22 0 -33 -34 -66 l-40 -41 -27 21 c-14 11 -33 18
-41 15 -7 -3 -17 2 -20 11 -3 9 -14 16 -24 16 -24 0 -32 24 -15 47 8 10 15 13
15 8 0 -6 -3 -15 -7 -21 -5 -5 8 8 28 28 39 40 59 48 59 22 0 -11 9 -6 31 15
32 33 44 37 54 21z m-365 -104 c0 -6 -7 -1 -15 10 -8 10 -15 23 -15 28 0 6 7
1 15 -10 8 -10 15 -23 15 -28z m133 -61 c-3 -9 -8 -14 -10 -11 -3 3 -2 9 2 15
9 16 15 13 8 -4z m229 -30 c-20 -18 -38 -32 -40 -30 -6 6 16 40 25 39 4 -1 7
3 5 9 -4 13 18 27 34 20 8 -3 -1 -17 -24 -38z m-277 5 c3 -6 -1 -7 -9 -4 -18
7 -21 14 -7 14 6 0 13 -4 16 -10z m35 -4 c0 -3 -4 -8 -10 -11 -5 -3 -10 -1
-10 4 0 6 5 11 10 11 6 0 10 -2 10 -4z m760 -46 c24 -24 26 -63 4 -84 -25 -26
-48 -18 -72 24 -18 32 -20 44 -12 60 14 26 54 26 80 0z m-564 -107 c-3 -4 -6
-1 -6 6 0 7 -6 11 -14 8 -10 -4 -12 0 -9 14 5 19 6 19 20 -1 8 -12 12 -24 9
-27z m-200 -9 c34 -16 114 -98 114 -116 0 -5 -4 -7 -8 -4 -5 3 2 -16 15 -41
12 -26 23 -57 23 -69 0 -59 -77 -73 -133 -24 -39 34 -59 40 -32 10 36 -40 84
-63 120 -57 27 4 33 3 28 -9 -3 -9 -21 -14 -53 -14 -39 0 -57 6 -91 33 -88 67
-135 177 -107 253 19 54 63 67 124 38z m468 -126 c22 -31 20 -54 -6 -72 -29
-20 -34 -20 -58 4 -24 24 -26 53 -4 74 22 22 50 20 68 -6z m-1291 -41 c20 -11
37 -24 37 -29 0 -13 -12 -9 -33 9 -18 17 -20 17 -42 -11 l-23 -29 -21 41 c-12
23 -21 44 -21 47 0 11 64 -6 103 -28z m1062 -7 c-3 -10 -2 -21 4 -24 12 -8
-38 -150 -80 -222 -31 -55 -33 -56 -42 -33 -10 23 -11 22 -16 -16 -4 -28 -13
-43 -30 -51 -13 -7 -30 -26 -37 -42 -18 -43 -50 -72 -79 -72 -34 0 -32 10 11
51 100 94 235 312 249 402 3 21 10 35 16 31 5 -3 7 -14 4 -24z m-1057 -55 c6
-14 16 -25 22 -25 11 0 13 -33 4 -67 -8 -31 -15 -29 -46 18 -30 43 -35 68 -16
87 17 17 23 15 36 -13z m1102 -61 c17 -50 7 -108 -34 -197 -51 -112 -98 -172
-205 -259 -42 -34 -223 -76 -206 -47 5 7 -11 2 -36 -13 -24 -14 -59 -28 -77
-31 -30 -6 -33 -5 -27 13 5 15 3 18 -9 14 -32 -12 -15 5 32 32 26 15 83 54
127 87 43 32 81 54 83 48 2 -6 13 -11 25 -11 20 0 20 0 -3 -25 -20 -21 -12
-19 51 16 42 22 87 50 100 62 14 12 20 19 14 16 -5 -3 -32 -18 -58 -33 l-49
-28 18 29 c10 15 29 39 41 53 72 81 86 99 104 133 32 62 61 104 56 82 -13 -49
-18 -110 -8 -96 5 8 13 53 16 100 4 47 9 89 12 94 8 13 21 -2 33 -39z m626
-29 c4 -16 0 -35 -11 -52 l-18 -26 -15 29 c-8 16 -24 39 -35 52 l-20 22 46 0
c41 0 47 -3 53 -25z m-1322 -50 c-15 -51 -11 -130 7 -119 5 3 10 31 11 62 l2
57 3 -50 c3 -30 10 -53 19 -58 9 -5 12 -16 9 -27 -8 -24 69 -106 108 -115 22
-6 34 -2 52 15 21 20 24 29 19 64 -8 52 -42 111 -91 158 -43 41 -72 50 -98 28
-17 -14 -17 -14 -6 8 20 38 56 28 121 -34 66 -63 97 -130 87 -191 -8 -48 -24
-63 -66 -63 -44 0 -126 48 -136 79 -7 23 -25 29 -25 8 0 -20 71 -84 114 -102
23 -10 50 -14 70 -10 l31 6 -24 -21 c-33 -28 -63 -25 -116 12 -53 37 -84 81
-113 161 -30 80 -29 131 4 164 14 14 27 23 29 21 2 -2 -2 -26 -11 -53z m154
-110 c23 -37 28 -55 13 -55 -11 0 -61 65 -61 79 0 23 26 9 48 -24z m836 -43
c11 -40 -5 -82 -33 -82 -23 0 -37 16 -46 52 -17 67 60 97 79 30z m-504 -16 c0
-3 -4 -8 -10 -11 -5 -3 -10 -1 -10 4 0 6 5 11 10 11 6 0 10 -2 10 -4z m477
-398 c-2 -7 3 -19 12 -25 23 -18 2 -29 -80 -43 -63 -11 -69 -10 -88 9 l-21 21
23 12 c12 6 49 17 82 24 79 16 77 16 72 2z m-646 -177 c10 -24 19 -47 19 -52
0 -13 -35 -25 -92 -32 -45 -6 -48 -5 -54 18 -9 37 -28 31 -20 -7 6 -31 6 -31
-14 -13 -24 22 -26 48 -5 65 14 12 14 15 -1 31 -9 10 -14 21 -11 26 3 4 40 8
82 7 l77 0 19 -43z"/>
<path d="M1022 1438 c-17 -17 -14 -99 4 -123 16 -19 16 -19 8 5 -12 35 -8 98
6 115 15 18 -1 20 -18 3z"/>
<path d="M1055 1423 c-12 -12 -15 -25 -10 -52 8 -43 14 -53 25 -46 5 3 4 21
-2 41 -12 46 3 67 29 41 11 -11 13 -17 5 -17 -18 0 -15 -41 6 -72 9 -14 30
-38 46 -53 15 -14 27 -28 25 -29 -10 -9 -51 16 -56 33 -3 11 -12 22 -20 26
-31 11 -26 -6 12 -45 30 -30 47 -40 72 -40 28 0 33 4 38 33 8 42 -6 77 -51
127 -32 35 -81 70 -98 70 -2 0 -12 -7 -21 -17z m120 -73 c10 -11 16 -20 13
-20 -3 0 -13 9 -23 20 -10 11 -16 20 -13 20 3 0 13 -9 23 -20z m-16 -16 c21
-27 28 -54 13 -54 -7 0 -37 35 -56 68 -14 24 23 12 43 -14z m48 -81 c-3 -10
-5 -2 -5 17 0 19 2 27 5 18 2 -10 2 -26 0 -35z"/>
</g>
</svg>
